<svg width="40" height="40" viewBox="0 0 40 40" fill="none" xmlns="http://www.w3.org/2000/svg">
<path d="M18.2258 19.1955C18.2258 20.38 17.7008 21.5037 16.7921 22.2637L10.5897 27.4516V27.4516C11.8567 26.7432 13.2568 28.1433 12.5484 29.4103V29.4103L17.7363 23.2079C18.4963 22.2992 19.62 21.7742 20.8045 21.7742H23.5484L21.6187 21.2918C20.1855 20.9335 19.0665 19.8145 18.7082 18.3813L18.2258 16.4516V19.1955Z" fill="black"/>
<path d="M10.5897 27.4516L9.77195 28.1565C9.50302 28.3884 9.32717 28.7098 9.27696 29.0613V29.0613C9.13848 30.0307 9.96935 30.8615 10.9387 30.723V30.723C11.2902 30.6728 11.6116 30.497 11.8435 30.228L12.5484 29.4103M10.5897 27.4516L16.7921 22.2637C17.7008 21.5037 18.2258 20.38 18.2258 19.1955V16.4516M10.5897 27.4516V27.4516C11.8567 26.7432 13.2568 28.1433 12.5484 29.4103V29.4103M12.5484 29.4103L17.7363 23.2079C18.4963 22.2992 19.62 21.7742 20.8045 21.7742H23.5484M18.2258 16.4516V15.3871C18.2258 11.8596 21.0854 9 24.6129 9V9C28.1404 9 31 11.8596 31 15.3871V15.3871C31 18.9146 28.1404 21.7742 24.6129 21.7742H23.5484M18.2258 16.4516L18.7082 18.3813C19.0665 19.8145 20.1855 20.9335 21.6187 21.2918L23.5484 21.7742" stroke="black"/>
</svg>
