<svg width="32" height="32" viewBox="0 0 32 32" fill="none" xmlns="http://www.w3.org/2000/svg">
<g clip-path="url(#clip0)">
<path d="M8.22181 7.51476C8.02655 7.3195 7.70996 7.3195 7.5147 7.51476C7.31944 7.71003 7.31944 8.02661 7.5147 8.22187L8.22181 7.51476ZM23.7782 24.4853C23.9735 24.6806 24.2901 24.6806 24.4853 24.4853C24.6806 24.2901 24.6806 23.9735 24.4853 23.7782L23.7782 24.4853ZM24.4853 8.22179C24.6806 8.02653 24.6806 7.70995 24.4853 7.51468C24.2901 7.31942 23.9735 7.31942 23.7782 7.51469L24.4853 8.22179ZM7.51475 23.7782C7.31948 23.9734 7.31948 24.29 7.51475 24.4853C7.71001 24.6805 8.02659 24.6805 8.22185 24.4853L7.51475 23.7782ZM7.5147 8.22187L23.7782 24.4853L24.4853 23.7782L8.22181 7.51476L7.5147 8.22187ZM23.7782 7.51469L7.51475 23.7782L8.22185 24.4853L24.4853 8.22179L23.7782 7.51469Z" fill="black"/>
</g>
<defs>
<clipPath id="clip0">
<rect width="32" height="32" rx="4" fill="white"/>
</clipPath>
</defs>
</svg>
