<svg width="32" height="32" viewBox="0 0 32 32" fill="none" xmlns="http://www.w3.org/2000/svg">
<path d="M15.9999 4.5L16.3363 4.13003L15.9999 3.82427L15.6636 4.13003L15.9999 4.5ZM10.5 27C10.2239 27 10 27.2239 10 27.5C10 27.7761 10.2239 28 10.5 28V27ZM10.1637 9.13003C9.95933 9.31579 9.94428 9.63201 10.13 9.83634C10.3158 10.0407 10.632 10.0557 10.8363 9.86997L10.1637 9.13003ZM21.1637 9.86997C21.368 10.0557 21.6842 10.0407 21.87 9.83633C22.0557 9.632 22.0407 9.31578 21.8363 9.13003L21.1637 9.86997ZM15.6636 4.13003L10.1637 9.13003L10.8363 9.86997L16.3363 4.86997L15.6636 4.13003ZM15.6636 4.86997L21.1637 9.86997L21.8363 9.13003L16.3363 4.13003L15.6636 4.86997ZM15.4999 4.5V23.5H16.4999V4.5H15.4999ZM11.9999 27H10.5V28H11.9999V27ZM15.4999 23.5C15.4999 25.433 13.9329 27 11.9999 27V28C14.4852 28 16.4999 25.9853 16.4999 23.5H15.4999Z" fill="black"/>
</svg>
