<svg width="32" height="32" viewBox="0 0 32 32" fill="none" xmlns="http://www.w3.org/2000/svg">
<path d="M16.4999 4.5C16.4999 4.22386 16.2761 4 15.9999 4C15.7238 4 15.4999 4.22386 15.4999 4.5L16.4999 4.5ZM15.5 27.5001C15.5 27.7762 15.7239 28.0001 16 28.0001C16.2761 28.0001 16.5 27.7762 16.5 27.5L15.5 27.5001ZM27.5 16.5C27.7762 16.5 28 16.2761 28 16C28 15.7239 27.7762 15.5 27.5 15.5V16.5ZM4.5 15.5C4.22386 15.5 4 15.7239 4 16C4 16.2761 4.22386 16.5 4.5 16.5L4.5 15.5ZM15.4999 4.5L15.5 27.5001L16.5 27.5L16.4999 4.5L15.4999 4.5ZM27.5 15.5L4.5 15.5L4.5 16.5L27.5 16.5V15.5Z" fill="black"/>
</svg>
