<svg width="40" height="14" viewBox="0 0 40 14" fill="none" xmlns="http://www.w3.org/2000/svg">
<path d="M21.5 9.09524V4.5C21.5 3.94772 21.9477 3.5 22.5 3.5H30.5C31.0523 3.5 31.5 3.94772 31.5 4.5V7.95238M21.5 9.09524V9.5C21.5 10.0523 21.9477 10.5 22.5 10.5H30.5C31.0523 10.5 31.5 10.0523 31.5 9.5V7.95238M21.5 9.09524C21.5 8.96977 22.4825 8.147 23.2341 7.54129C23.4881 7.33657 23.8519 7.34644 24.0973 7.56144V7.56144C24.3527 7.7852 24.7343 7.7852 24.9897 7.56145L27.3627 5.48218C27.7399 5.15169 28.3036 5.15169 28.6808 5.48218L31.5 7.95238" stroke="black"/>
</svg>
