<svg width="40" height="14" viewBox="0 0 40 14" fill="none" xmlns="http://www.w3.org/2000/svg">
<path d="M15 9.09524V4.5C15 3.94772 15.4477 3.5 16 3.5H24C24.5523 3.5 25 3.94772 25 4.5V7.95238M15 9.09524V9.5C15 10.0523 15.4477 10.5 16 10.5H24C24.5523 10.5 25 10.0523 25 9.5V7.95238M15 9.09524C15 8.96977 15.9825 8.147 16.7341 7.54129C16.9881 7.33657 17.3519 7.34644 17.5973 7.56144V7.56144C17.8527 7.7852 18.2343 7.7852 18.4897 7.56145L20.8627 5.48218C21.2399 5.15169 21.8036 5.15169 22.1808 5.48218L25 7.95238" stroke="black"/>
</svg>
