<svg width="40" height="14" viewBox="0 0 40 14" fill="none" xmlns="http://www.w3.org/2000/svg">
<path d="M16.6667 9.5C16.9428 9.5 17.1667 9.27614 17.1667 9C17.1667 8.72386 16.9428 8.5 16.6667 8.5V9.5ZM21.0556 7.00001C21.0556 7.27615 21.2794 7.50001 21.5556 7.50001C21.8317 7.50001 22.0556 7.27615 22.0556 7.00001H21.0556ZM16.5 5.5H19.5556V4.5H16.5V5.5ZM16.5 9.5H16.6667V8.5H16.5V9.5ZM19.5556 5.5C20.384 5.5 21.0556 6.17158 21.0556 7.00001H22.0556C22.0556 5.6193 20.9363 4.5 19.5556 4.5V5.5ZM15 7C15 6.17157 15.6716 5.5 16.5 5.5V4.5C15.1193 4.5 14 5.61929 14 7H15ZM14 7C14 8.3807 15.1192 9.5 16.5 9.5V8.5C15.6715 8.5 15 7.82844 15 7H14Z" fill="black"/>
<path d="M23.5003 9L23.5003 9.5L23.5003 9.5L23.5003 9ZM20.4446 9L20.4446 8.5L20.4446 8.5L20.4446 9ZM23.5075 5.00035L23.5075 4.50035L23.5075 4.50035L23.5075 5.00035ZM23.3335 4.50035C23.0574 4.50035 22.8335 4.7242 22.8335 5.00035C22.8335 5.27649 23.0574 5.50035 23.3335 5.50035L23.3335 4.50035ZM18.9446 7.00001C18.9446 6.72387 18.7207 6.50001 18.4446 6.50001C18.1684 6.50001 17.9446 6.72387 17.9446 7.00001L18.9446 7.00001ZM25.5001 7.00015L26.0001 7.00016L25.5001 7.00015ZM23.5003 8.5L20.4446 8.5L20.4446 9.5L23.5003 9.5L23.5003 8.5ZM23.5075 4.50035L23.3335 4.50035L23.3335 5.50035L23.5075 5.50035L23.5075 4.50035ZM20.4446 8.5C19.6161 8.5 18.9446 7.82843 18.9446 7.00001L17.9446 7.00001C17.9446 8.38072 19.0638 9.5 20.4446 9.5L20.4446 8.5ZM25.0001 7.00015C25.0001 7.8285 24.3286 8.5 23.5003 8.5L23.5003 9.5C24.8809 9.5 26.0001 8.38079 26.0001 7.00016L25.0001 7.00015ZM26.0001 7.00016C26.0001 5.62187 24.8904 4.50035 23.5075 4.50035L23.5075 5.50035C24.3335 5.50035 25.0001 6.1695 25.0001 7.00015L26.0001 7.00016Z" fill="black"/>
</svg>
