<svg width="40" height="14" viewBox="0 0 40 14" fill="none" xmlns="http://www.w3.org/2000/svg">
<path d="M8.5 9.09524V4.5C8.5 3.94772 8.94772 3.5 9.5 3.5H17.5C18.0523 3.5 18.5 3.94772 18.5 4.5V7.95238M8.5 9.09524V9.5C8.5 10.0523 8.94772 10.5 9.5 10.5H17.5C18.0523 10.5 18.5 10.0523 18.5 9.5V7.95238M8.5 9.09524C8.5 8.96977 9.48252 8.147 10.2341 7.54129C10.4881 7.33657 10.8519 7.34644 11.0973 7.56144V7.56144C11.3527 7.7852 11.7343 7.7852 11.9897 7.56145L14.3627 5.48218C14.7399 5.15169 15.3036 5.15169 15.6808 5.48218L18.5 7.95238" stroke="black"/>
</svg>
